<!--?xml version="1.0" encoding="utf-8"?-->
<!-- Generator: Adobe Illustrator 18.1.1, SVG Export Plug-In . SVG Version: 6.00 Build 0)  -->

<svg version="1.1" id="_x32_" xmlns="http://www.w3.org/2000/svg" xmlns:xlink="http://www.w3.org/1999/xlink" x="0px" y="0px" viewBox="0 0 512 512" style="width: 32px; height: 32px; opacity: 1;" xml:space="preserve">
<style type="text/css">
	.st0{fill:#4B4B4B;}
</style>
<g>
	<path class="st0" d="M457.678,43.748C456.434,43.883,455.517,43.987,457.678,43.748L457.678,43.748z" style="fill: rgb(247, 119, 15);"></path>
	<path class="st0" d="M459.806,43.525c0,0-0.9,0.096-1.777,0.191C458.515,43.66,459.033,43.604,459.806,43.525z" style="fill: rgb(247, 119, 15);"></path>
	<path class="st0" d="M458.029,43.716c-0.096,0.008-0.264,0.032-0.351,0.032C457.797,43.74,457.909,43.731,458.029,43.716z" style="fill: rgb(247, 119, 15);"></path>
	<path class="st0" d="M387.477,39.402c-0.016,0.016-0.024,0.032-0.032,0.056c0.016-0.032,0.032-0.056,0.056-0.08
		C387.492,39.386,387.484,39.394,387.477,39.402z" style="fill: rgb(247, 119, 15);"></path>
	<path class="st0" d="M374.488,93.084C374.496,93.722,374.513,94.48,374.488,93.084L374.488,93.084z" style="fill: rgb(247, 119, 15);"></path>
	<path class="st0" d="M374.488,93.084c0-0.16-0.008-0.311-0.008-0.407C374.481,92.845,374.488,92.956,374.488,93.084z" style="fill: rgb(247, 119, 15);"></path>
	<path class="st0" d="M265.818,148.607c-17.429,2.041-34.929,3.404-52.342,5.534c-17.086,2.097-36.468,4.074-50.916,14.271
		c-30.074,21.105-20.786,65.474,7.846,83.094c15.778,9.71,34.1,8.977,51.935,8.284c17.94-0.693,35.854-2.767,53.379-6.689
		c57.987-12.98,115.854-50.708,134.519-109.891c34.276-21.726,53.706-60.498,56.034-100.363c-2.152,0.232-4.305,0.455-6.466,0.678
		c-16.543,1.762-31.62,10.795-44.106,21.343c0-13.968-3.66-27.929-10.652-40.048c-1.754-3.022-3.756-5.748-5.932-8.459
		c-1.976-2.479-11.967,5.119-13.769,6.562c-24.429,19.63-27.379,62.452-20.809,90.796
		C340.7,139.822,298.913,144.709,265.818,148.607z M387.452,152.386c-18.887,38.948-56.297,65.57-96.799,78.438
		c-22.14,7.032-45.334,10.396-68.503,11.321c-25.282,1.012-56.688-1.643-60.571-33.279c-3.213-26.207,23.129-32.689,43.325-35.759
		c28.24-4.313,56.854-5.493,85.079-10.014c25.058-4.003,51.146-10.094,72.473-24.501c8.388-5.677,11.816-12.733,21.017-4.241
		C391.511,141.782,392.762,141.687,387.452,152.386z M451.196,57.508c-1.108,6.594-2.878,13.108-5.198,19.383
		c-8.762,0-17.532,0-26.295,0C428.506,68.376,439.205,60.674,451.196,57.508z M447.13,73.822
		C447.289,73.399,447.321,73.311,447.13,73.822L447.13,73.822z M417.439,89.552c7.758,0,15.516,0,23.273,0
		c-1.874,3.979-4.003,7.854-6.394,11.553c0,0,0.494-0.766,0.822-1.276c-0.168,0.271-0.408,0.638-0.822,1.276
		c-9.106-0.455-18.21-0.925-27.315-1.38C410.374,92.909,409.944,89.552,417.439,89.552z M426.504,113.208
		C421.768,119.012,426.544,113.152,426.504,113.208c-3.284,4.027-6.92,7.774-10.866,11.162c-6.522,5.604-6.235,4.863-12.71,0.008
		c-3.022-2.272-6.784-2.543-4.919-6.322c0.646-1.316,1.857-5.509,3.11-6.307C405.711,108.862,423.618,116.66,426.504,113.208z
		 M387.445,39.458c-0.582,0.718-1.196,1.499,0.032-0.056c0.94-1.172,0.518-0.646,0.024-0.024c2.009-2.511,4.385-4.735,7.104-6.482
		c6.793,11.322,9.48,25.035,7.614,38.086c-4.002-4.146-8.004-8.292-12.015-12.438C382.597,50.668,379.376,49.624,387.445,39.458z
		 M375.661,77.194c-0.024,0.287-0.04,0.519-0.04,0.519c0.383-5.039,1.108-10.054,2.304-14.958
		c5.096,5.278,10.182,10.54,15.276,15.818c6.586,6.817,4.64,6.953,0.343,15.674c-5.98-5.516-11.951-11.026-17.923-16.535
		C375.637,77.489,375.645,77.377,375.661,77.194z M375.772,75.767C375.796,75.44,375.788,75.496,375.772,75.767L375.772,75.767z
		 M375.724,76.365c-0.008,0.04-0.008,0.08-0.008,0.12C375.716,76.453,375.716,76.396,375.724,76.365z M374.481,92.55
		c2.017,1.866,14.981,11.968,14.072,13.817c-2.591,5.238-1.634,7.79-7.51,5.159C373.181,108.001,374.616,100.993,374.481,92.55z" style="fill: rgb(247, 119, 15);"></path>
	<path class="st0" d="M505.428,152.729c0.47,1.188,0.957,2.416,1.101,2.783C506.417,155.24,506.105,154.436,505.428,152.729
		C503.881,148.799,504.599,150.633,505.428,152.729c-8.499-21.535-24.963-39.003-43.348-52.598
		c-4.537,7.75-9.855,15.054-15.93,21.67c31.19,23.122,54.184,67.052,27.021,102.436c-6.531-28.782-28.488-51.202-52.447-66.932
		c-2.224,5.788-4.911,11.345-7.741,16.863c7.08,4.823,13.801,10.197,19.86,16.265c12.598,12.613,22.524,28.718,23.767,46.881
		c0.734,10.731-27.068,22.922-35.91,27.402c-16.408,8.316-33.758,14.734-51.45,19.757c-70.345,19.972-148.48,20.459-219.231,2.138
		c-33.247-8.619-66.861-21.846-93.594-43.915c-10.102-8.332,6.626-34.898,12.685-42.695c11.465-14.75,27.005-26.064,43.302-34.954
		c31.286-17.062,66.749-26.143,102.006-30.114c18.226-2.048,36.619-2.694,54.941-1.985c9.185,0.343,18.353,1.052,27.474,2.105
		c9.177-2.464,18.234-5.486,26.861-9.496c2.416-1.116,4.792-2.328,7.12-3.612c-56.6-11.832-117.258-10.413-172.972,5.318
		c-48.109,13.578-107.523,42.672-120.343,95.994c-20.946-27.722-9.72-66.487,13.242-89.113
		c23.912-23.576,56.536-37.792,88.292-47.272c68.224-20.347,144.342-21.702,213.523-5.254c-0.286-9.106,0.144-18.25,1.484-27.268
		c-8.412-1.881-16.887-3.484-25.402-4.832c-19.446-3.085-39.099-4.855-58.776-5.429c-37.289-1.076-74.825,1.978-111.286,9.99
		C96.871,67.618,4.37,103.608,0.248,178.61c-3.883,70.48,38.485,144.533,85.158,194.22c11.187,11.895,23.241,22.978,36.102,33.032
		c6.546,5.119,13.29,9.974,20.228,14.535c2.607,1.706,21.646,11.13,21.646,13.187c0,7.607,0,15.212,0,22.826
		c0,13.626,10.11,20.722,21.615,25.721c42.814,18.632,98.234,18.664,141.128,0.127c15.388-6.641,21.901-15.292,21.901-31.573
		c0-5.7,0-11.409,0-17.117c0-2.536,25.634-15.818,29.03-18.194c41.029-28.735,74.882-67.611,99.016-111.422
		C499.105,262.158,524.196,200.28,505.428,152.729z" style="fill: rgb(247, 119, 15);"></path>
</g>
</svg>
