<svg id="visual" viewBox="0 0 1920 500" width="1920" height="500" xmlns="http://www.w3.org/2000/svg" xmlns:xlink="http://www.w3.org/1999/xlink" version="1.1"><path d="M0 41L64 63.5C128 86 256 131 384 159.5C512 188 640 200 768 213.2C896 226.3 1024 240.7 1152 241.2C1280 241.7 1408 228.3 1536 213C1664 197.7 1792 180.3 1856 171.7L1920 163L1920 501L1856 501C1792 501 1664 501 1536 501C1408 501 1280 501 1152 501C1024 501 896 501 768 501C640 501 512 501 384 501C256 501 128 501 64 501L0 501Z" fill="#ffc772"></path><path d="M0 179L64 199.7C128 220.3 256 261.7 384 269.7C512 277.7 640 252.3 768 235.5C896 218.7 1024 210.3 1152 226.8C1280 243.3 1408 284.7 1536 311.5C1664 338.3 1792 350.7 1856 356.8L1920 363L1920 501L1856 501C1792 501 1664 501 1536 501C1408 501 1280 501 1152 501C1024 501 896 501 768 501C640 501 512 501 384 501C256 501 128 501 64 501L0 501Z" fill="#fba240"></path><path d="M0 382L64 386.3C128 390.7 256 399.3 384 411C512 422.7 640 437.3 768 419.5C896 401.7 1024 351.3 1152 325.8C1280 300.3 1408 299.7 1536 315.2C1664 330.7 1792 362.3 1856 378.2L1920 394L1920 501L1856 501C1792 501 1664 501 1536 501C1408 501 1280 501 1152 501C1024 501 896 501 768 501C640 501 512 501 384 501C256 501 128 501 64 501L0 501Z" fill="#f7770f"></path></svg>