<svg id="visual" viewBox="0 0 1920 500" width="1920" height="500" xmlns="http://www.w3.org/2000/svg" xmlns:xlink="http://www.w3.org/1999/xlink" version="1.1"><path d="M0 457L64 434.5C128 412 256 367 384 338.5C512 310 640 298 768 284.8C896 271.7 1024 257.3 1152 256.8C1280 256.3 1408 269.7 1536 285C1664 300.3 1792 317.7 1856 326.3L1920 335L1920 0L1856 0C1792 0 1664 0 1536 0C1408 0 1280 0 1152 0C1024 0 896 0 768 0C640 0 512 0 384 0C256 0 128 0 64 0L0 0Z" fill="#ffc772"></path><path d="M0 319L64 298.3C128 277.7 256 236.3 384 228.3C512 220.3 640 245.7 768 262.5C896 279.3 1024 287.7 1152 271.2C1280 254.7 1408 213.3 1536 186.5C1664 159.7 1792 147.3 1856 141.2L1920 135L1920 0L1856 0C1792 0 1664 0 1536 0C1408 0 1280 0 1152 0C1024 0 896 0 768 0C640 0 512 0 384 0C256 0 128 0 64 0L0 0Z" fill="#fba240"></path><path d="M0 116L64 111.7C128 107.3 256 98.7 384 87C512 75.3 640 60.7 768 78.5C896 96.3 1024 146.7 1152 172.2C1280 197.7 1408 198.3 1536 182.8C1664 167.3 1792 135.7 1856 119.8L1920 104L1920 0L1856 0C1792 0 1664 0 1536 0C1408 0 1280 0 1152 0C1024 0 896 0 768 0C640 0 512 0 384 0C256 0 128 0 64 0L0 0Z" fill="#f7770f"></path></svg>